<svg version="1.1" id="Layer_1" xmlns="http://www.w3.org/2000/svg" xmlns:xlink="http://www.w3.org/1999/xlink" x="0px" y="0px"
     width="100%" viewBox="0 0 1024 1024" enable-background="new 0 0 1024 1024" xml:space="preserve">
<path fill="#FFFFFF" opacity="1.000000" stroke="none" 
    d="
M610.410828,603.510864 
    C581.757874,618.492493 551.509216,625.740540 519.659546,625.061279 
    C471.621033,624.036682 429.579865,607.116821 393.974426,574.836304 
    C361.854156,545.715454 342.039490,509.451202 335.109070,466.783600 
    C325.308502,406.445587 340.774353,352.819427 381.343292,306.970551 
    C411.013794,273.438507 448.322906,253.085617 492.596313,246.138214 
    C515.839905,242.490814 539.059021,243.719193 561.990845,249.187698 
    C563.041809,249.438324 564.376465,249.388290 565.574524,251.755142 
    C521.603516,251.674728 483.745697,266.661560 452.987946,297.313721 
    C422.069336,328.126251 406.858551,366.113190 408.761261,409.736328 
    C411.414215,470.560547 441.851318,514.179443 494.458252,543.280823 
    C496.739868,541.236877 496.522552,539.173767 496.652344,537.241516 
    C498.638092,507.688812 500.632233,478.136597 502.578278,448.581238 
    C503.649902,432.305603 504.551270,416.018311 505.708282,399.748993 
    C506.087921,394.410767 505.250214,389.574554 502.379822,384.982208 
    C499.734558,380.750122 497.527832,376.246460 494.998901,371.938171 
    C493.529480,369.434906 494.230164,367.916199 496.731781,366.867126 
    C499.918060,365.530884 503.090912,364.162659 506.458771,362.727600 
    C504.942719,357.645325 503.238708,353.015747 504.149475,347.839600 
    C505.779724,338.574219 511.293121,331.858398 518.789062,327.281921 
    C525.727539,323.045837 526.610229,316.718445 527.659973,309.981567 
    C528.077271,307.303589 526.233643,306.198059 524.502258,304.831482 
    C520.144226,301.391754 518.813171,296.715546 519.748169,291.433105 
    C520.572083,286.778442 523.510742,283.748718 527.946716,282.199585 
    C528.506836,282.003998 529.173401,282.113037 530.574463,282.040192 
    C527.663452,287.368347 525.118530,292.530334 529.853638,297.391479 
    C534.257324,301.912415 539.565002,300.452698 545.128967,298.475739 
    C545.062805,303.177765 542.140320,305.143677 538.918579,306.221252 
    C535.029175,307.522186 535.271729,310.018524 535.420166,313.252563 
    C535.739380,320.205658 539.787170,324.257568 545.107239,327.901062 
    C552.020386,332.635559 557.116455,338.792908 558.907776,347.365875 
    C560.018372,352.681549 558.291260,357.522369 557.064697,362.454468 
    C559.854614,364.894165 563.315430,365.229401 566.298218,366.604004 
    C568.998535,367.848450 569.736694,369.456451 568.234497,372.103516 
    C565.850464,376.304535 563.944092,380.839874 561.122742,384.714722 
    C556.920349,390.486267 557.003418,396.760193 557.511108,403.307648 
    C558.809998,420.058258 560.059631,436.812775 561.272949,453.569794 
    C562.546448,471.158447 563.813477,488.747986 564.972961,506.344391 
    C565.848206,519.627563 566.523926,532.923767 567.344116,546.210754 
    C567.578735,550.011169 568.007202,553.799683 568.410706,558.308960 
    C601.487000,557.039185 630.153198,545.470459 655.587463,525.177429 
    C681.065918,504.849182 697.629944,478.396698 708.852051,448.035034 
    C709.655090,466.864014 705.739563,484.831848 699.200073,502.141815 
    C682.328613,546.800171 652.729309,580.534241 610.410828,603.510864 
M406.999115,335.609985 
    C416.991516,313.046783 431.794922,293.941040 449.707458,277.069641 
    C390.012543,302.686401 337.785614,373.781952 350.291290,460.329407 
    C361.208496,535.883667 424.777710,601.434570 508.079742,608.302551 
    C535.544006,610.566772 562.162292,606.475464 587.734009,595.983093 
    C613.252380,585.512573 645.967163,561.145386 651.670288,548.277527 
    C578.230408,595.018616 495.571167,575.967651 445.302155,528.290100 
    C393.382416,479.046936 377.555664,401.175629 406.999115,335.609985 
M508.323608,537.682129 
    C508.295715,539.181091 508.270111,540.680115 508.239624,542.179016 
    C508.089691,549.556030 510.581146,551.813904 518.770264,551.296692 
    C518.770264,549.694153 518.767334,548.051331 518.770813,546.408569 
    C518.778320,542.910461 518.686523,539.408386 518.820679,535.915100 
    C519.072815,529.353210 524.187500,522.690674 530.229370,520.858521 
    C535.362610,519.301880 544.027405,527.033691 544.282166,533.665283 
    C544.512146,539.653992 544.353027,545.657043 544.401855,551.653381 
    C544.452332,557.851318 545.642639,558.816467 552.164917,558.693787 
    C557.719360,558.589294 555.933472,554.545227 555.766052,551.812866 
    C554.209229,526.405396 552.480713,501.008575 550.825256,475.607117 
    C549.072571,448.713989 547.286133,421.822754 545.666321,394.921539 
    C545.402771,390.543610 543.333557,388.523102 539.236145,388.414917 
    C534.411804,388.287445 529.578491,388.304291 524.753967,388.436432 
    C520.383911,388.556061 517.890808,390.385406 517.613831,395.324554 
    C516.729187,411.098999 515.414062,426.848724 514.380798,442.615570 
    C512.324768,473.988770 510.345825,505.367004 508.323608,537.682129 
M545.917053,345.947998 
    C544.812134,343.471619 543.103394,341.463135 541.104248,339.666809 
    C532.648193,332.068542 529.570251,332.167816 521.345032,340.182465 
    C517.105103,344.313812 515.039124,349.045471 516.689209,355.017487 
    C517.609009,358.346313 519.445923,360.101807 523.147339,359.706299 
    C528.263367,359.159546 533.375610,359.025421 538.547058,359.544342 
    C544.649841,360.156799 546.663452,358.200439 546.916565,352.058014 
    C546.990051,350.272614 546.487122,348.463470 545.917053,345.947998 
M552.387146,376.447540 
    C553.759033,373.449066 551.254639,373.573395 549.635864,373.141846 
    C540.166321,370.617493 530.560730,370.586945 520.943848,371.946167 
    C517.427185,372.443176 513.657349,372.458160 510.686615,374.919342 
    C512.373962,378.841614 512.410767,378.995911 515.533447,378.251709 
    C526.241638,375.699738 536.931763,375.668762 547.618469,378.255066 
    C549.418579,378.690704 550.903259,378.626801 552.387146,376.447540 
z"/>
<path fill="#FFFFFF" opacity="1.000000" stroke="none" 
    d="
M289.404968,683.697144 
    C297.168427,683.715942 297.187653,683.715881 297.216553,691.143372 
    C297.255432,701.140198 297.128357,711.139954 297.346191,721.132568 
    C297.433197,725.126038 295.860809,726.384277 292.048462,726.312561 
    C288.512787,726.246094 285.734467,726.075745 285.933777,721.400208 
    C286.138916,716.588562 285.979309,711.761475 285.979309,705.658813 
    C282.186310,709.892578 280.780731,714.145813 278.480255,717.800049 
    C274.518799,724.092651 270.964539,724.062500 267.245422,717.503418 
    C265.203766,713.902771 263.152405,710.307678 259.986206,706.824951 
    C259.986206,711.529907 259.832581,716.241455 260.031647,720.937927 
    C260.211945,725.191895 258.223572,726.329590 254.277420,726.313416 
    C250.373413,726.297424 248.532379,725.311829 248.633972,720.961121 
    C248.878952,710.470215 248.638977,699.968689 248.755692,689.473267 
    C248.778778,687.397583 247.597900,684.160034 251.098663,683.848450 
    C254.502335,683.545349 258.457367,682.098206 260.829620,686.524597 
    C264.211823,692.835388 267.813751,699.028564 271.344482,705.259155 
    C271.657898,705.812256 272.137817,706.271057 273.084320,707.452759 
    C277.015991,700.627869 280.707153,694.195801 284.426483,687.780090 
    C285.490723,685.944275 286.236755,683.708618 289.404968,683.697144 
z"/>
<path fill="#FFFFFF" opacity="1.000000" stroke="none" 
    d="
M510.353394,701.894897 
    C508.879700,704.312500 510.824219,705.074890 511.852020,706.255188 
    C517.253906,712.458252 515.272766,721.054626 507.778870,724.403809 
    C502.055847,726.961548 496.028900,726.232544 490.079376,726.246887 
    C474.677338,726.283936 474.675964,726.244263 474.677460,710.882019 
    C474.678192,703.231750 474.769440,695.580200 474.648499,687.931885 
    C474.597595,684.713318 475.856934,683.494080 479.066528,683.574280 
    C485.881592,683.744446 492.712341,683.454163 499.518982,683.753967 
    C510.705750,684.246826 515.757141,692.603210 510.353394,701.894897 
M492.568634,716.827698 
    C494.557587,716.757263 496.565582,716.833191 498.530304,716.576904 
    C500.660828,716.299072 502.461609,715.177551 502.443146,712.807434 
    C502.424347,710.397034 500.626648,709.400391 498.416382,709.275024 
    C496.264954,709.153076 494.104126,709.157043 491.947815,709.169739 
    C489.272278,709.185486 486.512207,708.873657 486.368500,712.956055 
    C486.220490,717.160339 488.970978,716.836365 492.568634,716.827698 
M491.578278,699.937561 
    C493.075531,699.883545 494.581909,699.914429 496.067902,699.755249 
    C498.203003,699.526367 500.160919,698.677429 500.207672,696.254150 
    C500.250397,694.039856 498.366302,693.332825 496.475098,692.899536 
    C493.169983,692.142395 489.957214,692.395142 486.866150,693.356445 
    C486.087799,699.206726 486.087799,699.206726 491.578278,699.937561 
z"/>
<path fill="#FFFFFF" opacity="1.000000" stroke="none" 
    d="
M418.305176,699.021912 
    C418.399139,703.688599 417.090057,707.445862 413.776245,710.099243 
    C411.147583,712.204224 411.521942,713.953491 413.218872,716.399963 
    C415.157013,719.194214 417.750793,721.670227 418.585571,725.179932 
    C410.660065,727.853638 407.062714,726.704041 402.890015,720.363892 
    C402.067017,719.113342 401.220306,717.870728 400.287811,716.701599 
    C398.692108,714.700989 396.515289,714.754211 394.353210,715.362305 
    C392.288330,715.943115 392.431641,717.794434 392.312836,719.462097 
    C391.851410,725.940552 389.177887,727.730469 382.685699,726.171265 
    C380.578003,725.665100 380.068329,724.281372 380.067261,722.522888 
    C380.060181,710.861816 380.100067,699.200684 380.129547,687.539612 
    C380.136139,684.936218 381.234009,683.577820 384.059204,683.632446 
    C390.387726,683.754883 396.736115,683.425537 403.046082,683.796509 
    C412.120972,684.330078 417.302246,689.584595 418.305176,699.021912 
M392.392029,696.090454 
    C392.170319,705.012512 393.793243,706.531128 401.590515,704.697815 
    C405.886993,703.687683 407.488464,698.611633 404.527435,695.388916 
    C401.932465,692.564575 395.865997,692.504517 392.392029,696.090454 
z"/>
<path fill="#FFFFFF" opacity="1.000000" stroke="none" 
    d="
M329.740082,691.087158 
    C329.814941,683.891907 332.467133,681.979187 339.071564,683.749756 
    C340.366486,684.096924 341.162415,684.667236 341.265320,686.026428 
    C341.328186,686.856140 341.397003,687.687683 341.404236,688.518982 
    C341.517090,701.450989 340.227264,699.537964 353.775146,699.660339 
    C356.451660,699.684448 357.820892,698.567383 357.729279,695.789429 
    C357.668915,693.959412 357.745575,692.124878 357.758972,690.292358 
    C357.806946,683.743225 357.995880,683.794189 364.487030,683.590820 
    C368.688080,683.459229 370.035400,685.085388 369.988770,689.103088 
    C369.865082,699.763672 369.889740,710.429688 370.102905,721.088562 
    C370.190338,725.458496 368.122070,726.461975 364.266968,726.302917 
    C360.756622,726.158081 357.320862,726.472534 357.753906,721.316711 
    C357.892761,719.663208 357.756836,717.986694 357.747131,716.320679 
    C357.706879,709.416199 357.706970,709.410522 350.869507,709.371033 
    C341.008209,709.314148 342.084229,708.759399 342.019806,718.276978 
    C341.965271,726.329956 341.746979,726.398376 334.544891,726.291260 
    C330.726410,726.234497 329.705017,724.530029 329.742371,721.064392 
    C329.848297,711.236084 329.755463,701.405579 329.740082,691.087158 
z"/>
<path fill="#FFFFFF" opacity="1.000000" stroke="none" 
    d="
M427.875244,710.978149 
    C431.297241,703.167847 434.798309,695.795471 437.747559,688.208557 
    C439.348419,684.090332 442.045990,683.492920 445.886505,683.515991 
    C449.566467,683.538086 452.027496,684.197571 453.639740,688.058655 
    C458.250458,699.100586 463.302704,709.958130 468.174255,720.891357 
    C468.772064,722.233032 469.639832,723.517639 469.306152,725.075928 
    C462.192474,727.884460 458.611694,726.654480 455.454102,720.324524 
    C454.758881,718.930847 454.032532,717.548157 452.293304,717.518372 
    C447.805420,717.441467 443.314972,717.455139 438.826416,717.506653 
    C437.305634,717.524109 436.591400,718.673218 435.900970,719.885315 
    C431.870422,726.961609 430.783417,727.404236 422.017456,725.330444 
    C423.004272,720.283447 426.218781,716.109619 427.875244,710.978149 
M444.394104,699.681519 
    C443.501465,702.402039 441.622803,704.831299 441.692719,708.069336 
    C444.439453,708.755920 446.895386,709.148743 449.804443,707.548950 
    C449.086060,705.592163 448.472198,703.773743 447.753113,701.997864 
    C446.822327,699.699036 446.786163,699.713684 444.394104,699.681519 
z"/>
<path fill="#FFFFFF" opacity="1.000000" stroke="none" 
    d="
M556.158813,700.894348 
    C558.532715,704.897888 560.733704,708.577698 563.038696,712.431458 
    C566.090820,710.913635 566.899292,708.226624 568.199646,706.046448 
    C571.611572,700.326111 574.793518,694.469177 578.138794,688.708313 
    C579.291687,686.722900 580.401489,684.209717 583.378418,685.161377 
    C585.906921,685.969727 585.235718,688.434509 585.248962,690.325256 
    C585.320129,700.487183 585.353943,710.650330 585.263428,720.811768 
    C585.244873,722.892090 586.247559,726.149414 582.463867,725.950012 
    C578.982849,725.766541 579.812134,722.664246 579.784058,720.500793 
    C579.689819,713.221252 579.748169,705.939758 578.655762,698.304993 
    C574.951782,704.482544 571.266663,710.671509 567.538391,716.834290 
    C564.134644,722.460571 562.790771,722.490967 559.501770,716.865601 
    C555.980164,710.842468 552.593506,704.740356 548.039368,698.758728 
    C548.039368,702.437988 548.043457,706.117310 548.038208,709.796570 
    C548.033264,713.295044 548.127502,716.798523 547.969604,720.290344 
    C547.864258,722.620422 548.624695,725.927063 544.814636,725.895325 
    C540.922852,725.862915 541.871033,722.528442 541.851990,720.228821 
    C541.767700,710.067261 541.795959,699.904419 541.835632,689.742249 
    C541.843201,687.815125 541.404541,685.485840 544.198853,684.960449 
    C546.609253,684.507263 547.833435,686.136169 548.861389,687.954773 
    C551.237915,692.159119 553.611267,696.365234 556.158813,700.894348 
z"/>
<path fill="#FFFFFF" opacity="1.000000" stroke="none" 
    d="
M652.264099,713.174194 
    C649.351013,713.106873 648.102722,714.249939 648.171204,716.777405 
    C648.207214,718.108826 648.249084,719.449402 648.138611,720.773376 
    C647.955750,722.965881 648.723938,725.976990 645.205566,726.062195 
    C641.272522,726.157471 642.082214,722.878601 642.006287,720.567749 
    C641.869690,716.408020 641.995850,712.239990 641.995361,708.075439 
    C641.994690,702.078369 642.092651,696.078125 641.928223,690.085327 
    C641.825928,686.357117 643.022583,684.474854 647.080261,684.742310 
    C652.713013,685.113464 658.409607,684.315247 663.990967,685.738647 
    C669.454712,687.132019 673.118835,690.241211 674.378784,695.956787 
    C675.609863,701.541870 674.338196,706.357666 669.693542,709.695740 
    C666.802795,711.773376 667.221313,713.466064 668.965393,715.832947 
    C671.106812,718.739197 673.071167,721.775940 675.386841,725.157471 
    C672.292480,726.633484 670.139526,726.324829 668.359558,724.083069 
    C667.222656,722.651306 666.011597,721.209412 665.222046,719.583496 
    C662.629272,714.244629 658.563232,712.015686 652.264099,713.174194 
M665.549927,706.242737 
    C669.442749,703.444641 669.716553,699.469849 668.356628,695.514343 
    C667.087585,691.822937 663.650269,690.595398 659.981689,690.259277 
    C648.030518,689.164246 648.026855,689.175659 648.095825,701.047729 
    C648.103577,702.376892 648.129944,703.707703 648.205566,705.034485 
    C648.307373,706.821106 649.322021,707.823547 651.080872,707.793640 
    C655.694458,707.715393 660.400452,708.627930 665.549927,706.242737 
z"/>
<path fill="#FFFFFF" opacity="1.000000" stroke="none" 
    d="
M720.319458,698.700623 
    C724.489929,703.891418 728.438660,708.804626 732.583252,713.961487 
    C734.214050,712.365906 733.641479,710.642273 733.662537,709.155823 
    C733.759521,702.327026 733.733459,695.496704 733.778320,688.667053 
    C733.791138,686.720642 734.076172,684.892273 736.653076,684.889771 
    C739.345032,684.887146 739.361633,686.883850 739.365967,688.738831 
    C739.391174,699.566406 739.405212,710.394287 739.336182,721.221619 
    C739.325378,722.926086 739.956665,725.161438 737.534363,725.874695 
    C735.275330,726.539795 733.735046,725.151855 732.451782,723.504333 
    C727.232849,716.803711 722.035217,710.086609 716.815674,703.386414 
    C715.194824,701.305664 713.529663,699.259277 711.917480,697.238281 
    C709.943054,698.155884 710.484924,699.641968 710.472656,700.863953 
    C710.400757,708.026245 710.406738,715.189209 710.338379,722.351562 
    C710.322266,724.037598 710.261047,725.863403 707.888794,725.950623 
    C705.439087,726.040710 704.775757,724.439575 704.770508,722.374268 
    C704.741882,711.046997 704.725281,699.719727 704.720337,688.392456 
    C704.719727,687.031555 704.837158,685.621826 706.406799,685.114380 
    C708.213257,684.530273 709.670227,685.233887 710.804504,686.663757 
    C713.909180,690.578064 717.000916,694.502563 720.319458,698.700623 
z"/>
<path fill="#FFFFFF" opacity="1.000000" stroke="none" 
    d="
M752.874146,723.654053 
    C752.766602,712.035950 752.824280,700.879089 752.656006,689.725769 
    C752.602966,686.209717 753.601135,684.514709 757.429932,684.622803 
    C764.251160,684.815491 771.082092,684.653442 777.908936,684.666016 
    C779.792603,684.669495 781.841736,684.721191 781.880127,687.306458 
    C781.919006,689.923645 779.832031,689.986816 777.972595,690.007568 
    C772.811462,690.065125 767.647278,690.150635 762.488647,690.032349 
    C757.635437,689.921021 758.443970,693.332275 758.394287,696.245361 
    C758.345642,699.102295 757.927979,702.161316 762.374817,702.074341 
    C766.700928,701.989624 771.033691,702.053223 775.358948,702.193115 
    C777.191284,702.252441 779.264771,702.468872 779.046204,705.132141 
    C778.849060,707.533936 776.853455,707.286560 775.253845,707.316040 
    C771.092407,707.393005 766.925842,707.455322 762.767151,707.328918 
    C759.558044,707.231384 758.140503,708.570984 758.358337,711.775269 
    C758.459778,713.266907 758.496582,714.783569 758.348511,716.267456 
    C757.989929,719.860559 759.715454,720.914185 763.067139,720.799683 
    C768.389404,720.617676 773.722107,720.733704 779.050415,720.742676 
    C780.978333,720.745972 782.949585,720.943726 782.940491,723.486877 
    C782.931335,726.035095 780.932617,726.206909 779.022400,726.210815 
    C771.696045,726.225891 764.369690,726.226135 757.043457,726.196228 
    C755.365906,726.189392 753.636658,726.142639 752.874146,723.654053 
z"/>
<path fill="#FFFFFF" opacity="1.000000" stroke="none" 
    d="
M632.672607,726.134277 
    C628.507812,726.244080 627.717163,723.181152 626.881653,720.584045 
    C625.605652,716.617554 623.219421,714.887756 619.074585,715.374634 
    C617.432190,715.567566 615.729614,715.581543 614.087952,715.390076 
    C607.426208,714.612915 601.953613,715.552185 599.941895,723.324219 
    C599.195679,726.207153 596.753235,726.878296 594.064819,725.634399 
    C593.024048,723.892944 594.117004,722.631348 594.714172,721.321045 
    C599.543762,710.723938 604.392700,700.135620 609.246033,689.549316 
    C610.272827,687.309692 610.943665,684.746399 614.264343,684.844971 
    C617.290649,684.934814 617.971619,687.309998 618.917419,689.382874 
    C623.819946,700.127502 628.703613,710.881104 633.502441,721.672180 
    C634.131348,723.086304 636.085144,724.938721 632.672607,726.134277 
M620.325317,710.461670 
    C621.136841,710.033630 621.685974,709.356873 621.356018,708.461060 
    C619.389343,703.123291 617.322144,697.827087 613.971008,691.853760 
    C611.100891,698.602478 608.709290,704.226013 605.990479,710.619019 
    C611.335815,710.619019 615.447083,710.619019 620.325317,710.461670 
z"/>
<path fill="#FFFFFF" opacity="1.000000" stroke="none" 
    d="
M319.426514,698.480408 
    C319.608429,706.219177 319.677399,713.541077 320.007355,720.851074 
    C320.216766,725.490295 317.799652,726.327087 313.810547,726.307068 
    C309.854675,726.287231 307.576782,725.572144 307.687927,720.842834 
    C307.942047,710.029968 307.946869,699.202820 307.693939,688.389893 
    C307.568512,683.027466 310.933899,683.776123 314.298370,683.595459 
    C318.013367,683.395935 319.985443,684.577698 319.725494,688.585388 
    C319.521118,691.736328 319.517120,694.900269 319.426514,698.480408 
z"/>
<path fill="#FFFFFF" opacity="1.000000" stroke="none" 
    d="
M688.054565,684.911011 
    C691.127625,684.893738 691.302429,686.742126 691.303711,688.668457 
    C691.311035,699.822205 691.305969,710.975952 691.295715,722.129700 
    C691.293945,724.067139 691.101685,725.953735 688.497314,725.918762 
    C686.335693,725.889648 685.723389,724.434387 685.723511,722.553589 
    C685.723999,711.067322 685.718872,699.580994 685.740784,688.094727 
    C685.743408,686.726257 685.972412,685.402161 688.054565,684.911011 
z"/>
</svg>